<svg width="32" height="20" fill="none" xmlns="http://www.w3.org/2000/svg"><path fill-rule="evenodd" clip-rule="evenodd" d="M27.97 8.218V4.752h-2.471v3.466H21.94v2.475h3.558v3.564h2.47v-3.564h3.46V8.218h-3.46zM9.981 8.02v3.96s3.835-.005 5.397-.005c-.846 2.568-2.16 3.966-5.397 3.966-3.275 0-5.831-2.66-5.831-5.941 0-3.28 2.556-5.94 5.831-5.94 1.732 0 2.85.61 3.876 1.459.82-.823.752-.94 2.841-2.916A9.935 9.935 0 0 0 9.982 0C4.469 0 0 4.477 0 10s4.47 10 9.982 10c8.24 0 10.254-7.188 9.587-11.98H9.982z" fill="#fff"/></svg>