<svg width="15" height="20" fill="none" xmlns="http://www.w3.org/2000/svg"><path fill-rule="evenodd" clip-rule="evenodd" d="M13.979 14.429c0 .143.068.285.17.321 1.37.539 1.022 2.75-.58 2.75h-3.375c-.17 1.393-1.33 2.5-2.693 2.5-1.364 0-2.523-1.107-2.693-2.5H1.432c-1.622 0-1.936-2.216-.58-2.75.103-.036.171-.179.171-.321v-5.5c0-1.857.716-3.607 1.978-4.893.954-.929 2.114-1.572 3.375-1.786-.136-.25-.239-.536-.239-.821C6.137.643 6.751 0 7.501 0c.75 0 1.364.643 1.364 1.429 0 .321-.068.571-.239.821 3 .571 5.353 3.429 5.353 6.822v5.357zm-5.796-13c0-.393-.307-.715-.682-.715-.375 0-.682.322-.682.715 0 .392.307.714.682.714.375 0 .682-.322.682-.714zM7.5 19.286c-1.023 0-1.841-.786-2.011-1.786h4.023c-.17 1-.99 1.786-2.012 1.786zm-6.069-2.5H13.57c.85 0 1.006-1.13.34-1.393-.374-.143-.613-.536-.613-.964V9.072c0-3.333-2.56-6.215-5.796-6.215-1.5 0-2.932.607-4.023 1.715-1.16 1.142-1.773 2.678-1.773 4.357v5.5c0 .428-.239.821-.614.964a.735.735 0 0 0 .341 1.393z" fill="#2C3E51"/></svg>