<svg width="22" height="22" fill="none" xmlns="http://www.w3.org/2000/svg"><path fill-rule="evenodd" clip-rule="evenodd" d="M20.637 18.911l-4.122-4.067a8.44 8.44 0 0 0 1.857-5.276C18.372 4.844 14.476 1 9.687 1 4.897 1 1 4.844 1 9.568s3.896 8.568 8.687 8.568a8.717 8.717 0 0 0 5.034-1.6l4.16 4.106c.243.24.56.358.879.358.317 0 .634-.119.877-.358a1.213 1.213 0 0 0 0-1.73zM3.48 9.568c0-3.374 2.784-6.12 6.206-6.12 3.42 0 6.203 2.746 6.203 6.12 0 3.375-2.782 6.12-6.203 6.12-3.422 0-6.206-2.745-6.206-6.12z" fill="#2C3E51"/><path d="M16.515 14.844l-.685-.545-.49.616.56.552.615-.623zm-1.795 1.692l.615-.623-.52-.513-.598.421.503.715zm4.162 4.106l-.615.623.615-.623zm1.755 0l.614.624-.614-.624zm.614-2.354l-4.122-4.066-1.229 1.245 4.122 4.067 1.23-1.246zM17.2 15.39c1.235-1.567 2.034-3.673 2.048-5.822h-1.75c.015 1.832-.583 3.388-1.667 4.731l1.369 1.09zm2.048-5.822c0-5.219-4.3-9.443-9.56-9.443v1.75c4.317 0 7.81 3.463 7.81 7.693h1.75zM9.687.125C4.425.125.125 4.349.125 9.568h1.75c0-4.23 3.493-7.693 7.812-7.693V.125zM.125 9.568c0 5.219 4.3 9.443 9.562 9.443v-1.75c-4.319 0-7.812-3.464-7.812-7.693H.125zm9.562 9.443a9.97 9.97 0 0 0 5.537-1.76l-1.007-1.43c-1.317.938-2.799 1.452-4.53 1.44v1.75zm4.419-1.852l4.161 4.106 1.23-1.246-4.162-4.105-1.23 1.245zm4.162 4.107c.415.408.956.609 1.492.609v-1.75a.372.372 0 0 1-.264-.106l-1.228 1.247zm1.492.609c.535 0 1.076-.201 1.49-.61l-1.227-1.246a.37.37 0 0 1-.263.106v1.75zm1.491-.61c.832-.82.831-2.155.001-2.976l-1.23 1.244a.338.338 0 0 1 0 .486l1.23 1.246zM4.357 9.568c0-2.88 2.381-5.244 5.33-5.244v-1.75c-3.892 0-7.08 3.125-7.08 6.994h1.75zm5.33-5.244c2.95 0 5.33 2.364 5.33 5.244h1.75c0-3.869-3.186-6.994-7.08-6.994v1.75zm5.33 5.244c0 2.88-2.38 5.244-5.33 5.244v1.75c3.894 0 7.08-3.125 7.08-6.994h-1.75zm-5.33 5.244c-2.95 0-5.33-2.364-5.33-5.244h-1.75c0 3.87 3.188 6.994 7.08 6.994v-1.75z" fill="#fff"/></svg>