<svg width="21" height="20" fill="none" xmlns="http://www.w3.org/2000/svg"><path d="M10.641 19.524c-.018 0-.07-.002-.094 0-.06-.001-.095 0-.094 0-1.252 0-2.033-.56-2.825-1.143-.484-.33-.976-.683-1.601-.762a3.242 3.242 0 0 0-.753-.095c-.528.005-.914.082-1.225.095a.705.705 0 0 1-.376.095c-.145.011-.272-.015-.283-.19-.092-.182-.127-.343-.188-.476-.059-.422-.12-.668-.283-.667C.988 16.05.435 15.64.283 15.333c.012-.027.002-.069 0-.095-.006-.127.072-.226.188-.286 2.959-.453 4.288-3.524 4.332-3.619.013-.039.015-.042 0 0 .198-.418.233-.742.094-1.047-.175-.446-.839-.66-1.319-.762a.333.333 0 0 0-.282-.095c-.844-.394-.917-.754-.848-.953.025-.298.437-.516.754-.476a.425.425 0 0 1 .282 0c.37.195.725.29 1.036.286.42.004.605-.176.66-.19-.044-.213-.057-.425-.095-.667-.064-1.398-.174-3.163.283-4.19C6.684.238 9.503.003 10.358 0c-.001.004.342 0 .377 0 .849 0 3.674.235 4.991 3.238.457 1.026.347 2.793.283 4.19v.096c-.04.186-.053.378-.094.571.053.013.223.179.565.19.335-.008.67-.102 1.036-.285.11-.043.23-.054.282-.095.154.041.28.066.377.095.312.125.508.336.47.571.046.194-.111.507-.847.858a.332.332 0 0 0-.282.095c-.48.103-1.144.316-1.319.762-.14.305-.104.628.095 1.047-.016-.042-.014-.039 0 0 .043.095 1.37 3.165 4.331 3.62.116.059.194.158.189.285-.003.027-.013.07 0 .095-.154.305-.705.717-2.637 1.048-.155-.005-.216.203-.283.667-.062.132-.096.288-.188.476.003.118-.085.185-.188.19h-.094a1.11 1.11 0 0 1-.377-.095c-.355-.03-.722-.09-1.224-.095-.236.005-.517.03-.754.095-.625.08-1.117.431-1.6.762-.793.584-1.574 1.143-2.826 1.143z" fill="#fff"/><path fill-rule="evenodd" clip-rule="evenodd" d="M5.1 3.395C6.485.248 9.421.003 10.288.003h.152L10.703 0c.869 0 3.81.245 5.197 3.393.466 1.06.354 2.86.264 4.305l-.004.061-.008.14-.019.315a.798.798 0 0 0 .353.089c.262-.012.567-.1.905-.26a.955.955 0 0 1 .402-.082c.152 0 .307.03.44.085.388.14.632.424.639.743.007.405-.35.754-1.062 1.04a5.098 5.098 0 0 1-.305.104c-.401.13-1.009.325-1.173.718-.086.204-.052.466.11.8.053.127 1.338 3.095 4.193 3.572a.44.44 0 0 1 .364.46.598.598 0 0 1-.047.2c-.214.505-1.117.876-2.763 1.135-.054.074-.11.334-.145.497l-.001.005c-.035.162-.07.323-.12.494-.069.237-.241.368-.51.368a2.58 2.58 0 0 1-.474-.06 5.506 5.506 0 0 0-1.12-.12c-.26 0-.53.023-.802.069-.53.09-.981.412-1.504.786-.748.536-1.595 1.143-2.883 1.143-.058 0-.112-.002-.154-.004-.035.003-.07.004-.106.004-1.288 0-2.135-.607-2.883-1.143h-.001c-.522-.374-.973-.697-1.503-.787a4.878 4.878 0 0 0-.802-.068c-.47 0-.846.074-1.12.129-.182.036-.34.067-.474.067a.488.488 0 0 1-.51-.375 6.924 6.924 0 0 1-.12-.5v-.001c-.035-.162-.092-.427-.147-.502-1.645-.26-2.55-.631-2.763-1.138A.604.604 0 0 1 0 15.483a.44.44 0 0 1 .364-.46c2.854-.476 4.14-3.445 4.202-3.593.152-.313.187-.575.101-.779-.165-.393-.771-.588-1.173-.718a4.434 4.434 0 0 1-.306-.105c-.972-.389-1.107-.836-1.05-1.143.08-.425.592-.711 1.02-.711.124 0 .236.023.334.07.366.173.69.26.965.26a.83.83 0 0 0 .409-.09l-.03-.502-.001-.016c-.09-1.444-.202-3.242.264-4.301zm10.683 4.294c.087-1.4.195-3.14-.228-4.102C14.27.667 11.542.451 10.703.452l-.368.003C9.533.455 6.82.68 5.539 3.59c-.423.961-.315 2.7-.228 4.1v.002l.007.105.031.537.005.088-.058.066c-.025.028-.263.28-.798.28-.34 0-.727-.102-1.152-.303a.348.348 0 0 0-.148-.028c-.26 0-.56.178-.593.353-.029.152.162.402.783.651.072.03.167.06.277.095h.001c.479.154 1.2.387 1.444.967.137.328.1.714-.112 1.148-.086.207-1.453 3.325-4.515 3.89.053.124.384.554 2.445.877.322.05.401.418.493.845.033.152.067.31.113.469.016.054.018.059.092.059.091 0 .23-.027.391-.06a5.854 5.854 0 0 1 1.204-.137c.286 0 .58.026.875.075.63.107 1.144.474 1.687.864.73.522 1.483 1.062 2.634 1.062.03 0 .058-.001.111-.004.05.003.1.004.149.004 1.15 0 1.905-.54 2.634-1.063.544-.39 1.057-.756 1.687-.863.295-.05.59-.075.875-.075.511 0 .912.071 1.204.13.16.031.3.05.415.05.051 0 .054-.003.068-.05.046-.16.08-.313.113-.466.092-.426.17-.792.493-.843 2.061-.322 2.393-.751 2.457-.926-3.075-.513-4.44-3.632-4.527-3.838-.212-.434-.249-.82-.112-1.148.243-.58.965-.813 1.443-.967h.002c.11-.035.205-.066.277-.095.735-.294.788-.55.787-.621-.003-.126-.15-.265-.37-.344a.72.72 0 0 0-.274-.052.522.522 0 0 0-.218.04c-.396.189-.76.29-1.1.303-.49-.02-.71-.253-.732-.279l-.059-.066.005-.088c.01-.206.024-.42.038-.643V7.69z" fill="#030303"/></svg>