<svg width="124" height="25" fill="none" xmlns="http://www.w3.org/2000/svg"><path fill-rule="evenodd" clip-rule="evenodd" d="M6.32 15.045c-2.212-.345-4.296-1.28-4.296-3.113 0-1.832 1.871-2.868 3.46-2.868 1.517 0 2.637 1.387 2.637 2.908a1.4 1.4 0 0 0 1.4 1.398 1.4 1.4 0 0 0 1.401-1.398c0-2.154-2.163-3.762-5.4-3.762-2.233 0-5.47 1.279-5.47 4.893s3.278 4.187 5.806 4.694c2.172.436 3.77 1.423 3.77 3.139 0 1.934-2.014 3.059-3.724 3.059-1.632 0-3.1-1.59-3.1-2.974 0-.677-.622-1.326-1.394-1.326-.793 0-1.41.652-1.41 1.456 0 1.962 2.38 3.745 5.864 3.745 2.403 0 5.886-1.381 5.886-5.196 0-3.437-2.889-4.26-5.43-4.655zm13.009-6.81c3.361 0 6.086 2.229 6.086 5.721v5.246c0 3.492-2.725 5.72-6.086 5.72s-6.086-2.227-6.086-5.72v-5.246c0-3.492 2.725-5.72 6.086-5.72zm3.277 11.892V13.03c0-2.509-1.098-3.962-3.277-3.962-2.179 0-3.277 1.453-3.277 3.962v7.096c0 2.421 1.175 3.962 3.277 3.962 2.101 0 3.277-1.54 3.277-3.962zm15.317-1.13c-.772 0-1.398.619-1.4 1.382v.003c0 .02.012.934.004 1.048-.105 1.528-1.528 2.736-3.27 2.736-2.102 0-3.278-1.54-3.278-3.961v-7.096c0-2.509 1.098-3.962 3.277-3.962 1.743 0 3.166 1.209 3.271 2.737.008.114-.004 1.028-.004 1.047v.004a1.393 1.393 0 0 0 1.4 1.381c.773 0 1.408-.617 1.4-1.38h.002v-.005c0-2.648-2.865-4.617-6.069-4.617-3.361 0-6.086 2.228-6.086 5.72v5.246c0 3.493 2.725 5.72 6.086 5.72 3.205 0 6.068-2.035 6.068-4.617l.001-.004c.006-.764-.63-1.382-1.402-1.382zM44.69 8.39a5.646 5.646 0 0 1-2.108.9c-.138.038-.213.182-.213.324L42.4 24.24c0 .21.17.38.379.38h2.018a.38.38 0 0 0 .378-.38V8.713c0-.251-.288-.445-.485-.324zm1.77-6.54c-.188-.182-2.347-.337-3.437 2.433-.357.908-1.02 1.89-1.697 2.135a.335.335 0 0 0-.223.374l.003.015c2.844-.248 5.246-2.24 5.434-4.365.008-.097.054-.432-.08-.593zm7.96 6.387c3.36 0 6.085 2.228 6.085 5.72v5.246c0 3.492-2.724 5.72-6.086 5.72-3.36 0-6.086-2.227-6.086-5.72v-5.246c0-3.492 2.725-5.72 6.086-5.72zm3.277 11.89v-7.095c0-2.509-1.099-3.962-3.278-3.962-2.178 0-3.277 1.453-3.277 3.962v7.096c0 2.421 1.176 3.962 3.277 3.962 2.102 0 3.278-1.54 3.278-3.962zm14 4.451l-.186-.565a.166.166 0 0 0-.21-.105 3.45 3.45 0 0 1-.959.176c-1.849.032-3.343-1.332-3.343-2.96l.007-10.354h2.567a.166.166 0 0 0 .165-.168v-.494a.166.166 0 0 0-.165-.167h-2.57l-.007-7.302c0-.252-.288-.445-.485-.323a5.648 5.648 0 0 1-2.109.9c-.137.037-.213.182-.213.323l.02 6.402h-2.368a.166.166 0 0 0-.166.167v.494c0 .093.074.168.166.168h2.355l-.006 9.193c0 2.731 2.725 4.946 6.086 4.946.444 0 .877-.04 1.294-.113a.167.167 0 0 0 .127-.218zm9.875-15.64c.118.05.151.196.067.29a6.768 6.768 0 0 0-.486.613.186.186 0 0 1-.252.053c-.575-.362-1.408-.704-2.091-.716-1.85-.032-3.344 1.346-3.344 2.975v12.14c0 .182-.167.33-.374.33h-2.06c-.207 0-.375-.148-.375-.33v-10.98c0-2.732 2.725-4.954 6.086-4.954 1.022 0 1.984.215 2.83.578zm6.357.127c-1.517 0-2.637 1.4-2.637 2.92a1.4 1.4 0 0 1-1.4 1.398 1.385 1.385 0 0 1-1.401-1.38c0-2.155 2.163-3.792 5.4-3.792 3.362 0 5.755 2.24 5.755 5l-.002 8.402a2.3 2.3 0 0 0 1.887 2.26.203.203 0 0 1 .165.202v.358a.19.19 0 0 1-.193.191 4.856 4.856 0 0 1-3.161-1.339c-1.115 1.1-2.842 1.612-4.782 1.612-3.362 0-6.086-1.443-6.086-4.205 0-2.008 1.458-3.018 2.333-3.487.968-.518 2.454-.974 3.557-1.444 1.786-.763 3.473-1.483 3.473-2.949v-.85c0-1.613-1.096-2.897-2.908-2.897zm2.908 11.915v-5.94c-.913.524-1.973 1.003-3.068 1.47-1.793.766-3.487 2.37-3.487 4.18 0 2.116 1.136 3.372 3.278 3.372 1.922 0 3.277-1.27 3.277-3.084zm16.803-1.982c-.773 0-1.399.619-1.401 1.382v.003c0 .02.012.934.004 1.048-.105 1.528-1.528 2.736-3.271 2.736-2.101 0-3.277-1.54-3.277-3.961V13.11c0-2.509 1.098-3.962 3.277-3.962 1.744 0 3.166 1.209 3.271 2.737.008.114-.004 1.028-.004 1.047v.004a1.393 1.393 0 0 0 1.401 1.381c.772 0 1.407-.617 1.4-1.38h.001l-.001-.005c0-2.648-2.864-4.617-6.068-4.617-3.361 0-6.086 2.228-6.086 5.72v5.246c0 3.493 2.725 5.72 6.086 5.72 3.205 0 6.068-2.035 6.068-4.617l.001-.004h-.001c.007-.764-.628-1.382-1.4-1.382zm10.586-5.97c.408-.225.867-.24 1.439-.248 2.96-.039 3.584-2.126 3.483-2.367-.102-.183-.429-.26-.522-.286-1.831-.52-4.037.768-5.56 2.797-.285.352-.552.785-.793 1.17-.376.606-.731 1.178-1.275 1.468-.224.119-.493.174-.848.174h-.259V.361c0-.252-.288-.445-.485-.324a5.65 5.65 0 0 1-2.109.9c-.137.038-.213.182-.212.324l.031 22.98c0 .21.17.38.378.38h2.019a.38.38 0 0 0 .378-.38v-7.673h.459c1.972 0 3.42 1.11 3.843 2.828.433 1.759.549 2.55 1.222 3.747.315.595 1.28 1.476 1.793 1.476h2.502c.16 0 .29-.13.29-.292v-.316a.296.296 0 0 0-.198-.277c-1.623-.593-2.165-1.969-2.753-4.715-.484-2.269-2.297-3.252-4.935-3.288.338-.357.602-.78.861-1.195.37-.596.72-1.211 1.251-1.508z" fill="#fff"/></svg>