<svg width="18" height="20" fill="none" xmlns="http://www.w3.org/2000/svg"><path fill-rule="evenodd" clip-rule="evenodd" d="M17.391 9.943a6.46 6.46 0 0 1-1.45.17c-2.503 0-4.43-1.762-4.43-4.826 0-1.502.576-2.283 1.39-2.283.776 0 1.292.701 1.292 2.123 0 .809-.215 1.694-.373 2.219 0 0 .771 1.356 2.88.94.448-1.002.691-2.301.691-3.44 0-3.063-1.55-4.846-4.39-4.846-2.92 0-4.628 2.263-4.628 5.247 0 2.956 1.37 5.494 3.63 6.65-.95 1.917-2.16 3.606-3.42 4.878-2.289-2.79-4.358-6.51-5.207-13.771H0c1.56 12.093 6.209 15.944 7.437 16.683.696.42 1.295.4 1.93.04.998-.573 3.995-3.593 5.656-7.13a11.042 11.042 0 0 0 2.368-.274v-2.38z" fill="#fff"/></svg>