<svg width="15" height="20" viewBox="0 0 15 20" fill="none" xmlns="http://www.w3.org/2000/svg">
<path fill-rule="evenodd" clip-rule="evenodd" d="M13.9788 14.4288C13.9788 14.5717 14.047 14.7145 14.1493 14.7503C15.5188 15.2888 15.1714 17.5003 13.5697 17.5H10.1945C10.0239 18.8928 8.86477 20 7.501 20C6.13723 20 4.97805 18.8928 4.80764 17.5H1.43239C-0.189554 17.5 -0.503886 15.2835 0.852804 14.7499C0.954977 14.7145 1.02321 14.5713 1.02321 14.4288V8.92873C1.02321 7.07156 1.73916 5.32153 3.00063 4.03579C3.95522 3.1072 5.11452 2.46433 6.37588 2.25004C6.23952 2.00004 6.13723 1.71432 6.13723 1.4286C6.13723 0.642868 6.751 0 7.501 0C8.25112 0 8.86477 0.642868 8.86477 1.4286C8.86477 1.75003 8.79653 2.00004 8.62612 2.25004C11.6264 2.82148 13.9788 5.67867 13.9788 9.07159V14.4288ZM8.18288 1.4286C8.18288 1.03574 7.876 0.714302 7.501 0.714302C7.126 0.714302 6.81911 1.03574 6.81911 1.4286C6.81911 1.82146 7.126 2.1429 7.501 2.1429C7.876 2.1429 8.18288 1.82146 8.18288 1.4286ZM7.501 19.2861C6.47829 19.2861 5.65993 18.5003 5.48952 17.5003H9.51259C9.34206 18.5003 8.52382 19.2861 7.501 19.2861ZM1.43227 16.786H13.5696C14.4199 16.786 14.5761 15.6553 13.9105 15.3928C13.5355 15.2503 13.2969 14.857 13.2969 14.4288V9.07159C13.2969 5.73939 10.7372 2.85719 7.501 2.85719C6.00088 2.85719 4.56887 3.46435 3.47793 4.57151C2.31875 5.71439 1.70498 7.25013 1.70498 8.92873V14.4288C1.70498 14.8574 1.46633 15.2503 1.09133 15.3931C0.3467 15.8392 0.712911 16.786 1.43227 16.786Z" fill="#2C3E51"/>
</svg>
