<svg width="21" height="20" viewBox="0 0 21 20" fill="none" xmlns="http://www.w3.org/2000/svg">
<path d="M10.6412 19.5238C10.6235 19.5238 10.5717 19.5221 10.5471 19.5238C10.4862 19.5226 10.4517 19.5238 10.4529 19.5238C9.20101 19.5238 8.42049 18.9649 7.62779 18.3809C7.1443 18.0508 6.65231 17.6985 6.0269 17.619C5.79001 17.5532 5.50846 17.5294 5.27353 17.5238C4.74645 17.5294 4.36009 17.6061 4.04932 17.619C3.90633 17.696 3.75837 17.7252 3.67264 17.7143C3.5282 17.7252 3.4012 17.6994 3.39012 17.5238C3.29762 17.3416 3.2631 17.1813 3.20178 17.0476C3.14308 16.6258 3.08184 16.3796 2.91927 16.3809C0.98773 16.0519 0.435328 15.64 0.282501 15.3333C0.295173 15.3065 0.284897 15.2644 0.282501 15.2381C0.276677 15.1107 0.354769 15.0116 0.470842 14.9524C3.42956 14.499 4.75919 11.4281 4.80268 11.3333C4.81591 11.2944 4.81755 11.2907 4.80268 11.3333C5.00086 10.9146 5.03621 10.591 4.89685 10.2857C4.72179 9.84019 4.058 9.62655 3.57847 9.5238C3.51135 9.45081 3.40942 9.41833 3.29595 9.42857C2.45217 9.03479 2.37942 8.67456 2.44842 8.47618C2.47272 8.17774 2.88538 7.95952 3.20178 7.99999C3.31078 7.95952 3.39134 7.97618 3.48429 7.99999C3.85373 8.19523 4.20884 8.29018 4.52017 8.28571C4.93962 8.29018 5.12458 8.10986 5.17936 8.09523C5.13609 7.8829 5.12293 7.67051 5.08519 7.42857C5.021 6.03096 4.91126 4.26565 5.3677 3.23809C6.68437 0.238617 9.5031 0.00374222 10.3587 -5.72205e-06C10.3568 0.00374222 10.7004 -5.72205e-06 10.7354 -5.72205e-06C11.5837 -5.72205e-06 14.409 0.234869 15.7264 3.23809C16.1825 4.2644 16.0727 6.03096 16.009 7.42857V7.5238C15.9683 7.70965 15.9564 7.90164 15.9148 8.09523C15.9679 8.10778 16.1381 8.27352 16.4798 8.28571C16.8146 8.27727 17.15 8.18274 17.5157 7.99999C17.626 7.95702 17.746 7.9462 17.7982 7.90476C17.9523 7.9462 18.0785 7.97077 18.1749 7.99999C18.4874 8.12485 18.6827 8.33599 18.6457 8.57142C18.6909 8.76534 18.5339 9.0781 17.7982 9.42857C17.6851 9.41792 17.5832 9.4504 17.5157 9.5238C17.0353 9.62655 16.372 9.84019 16.1973 10.2857C16.0575 10.591 16.0929 10.9142 16.2915 11.3333C16.2762 11.2907 16.2778 11.294 16.2915 11.3333C16.3346 11.4281 17.6629 14.4981 20.6233 14.9524C20.739 15.0116 20.8175 15.1107 20.8116 15.2381C20.8088 15.2648 20.7986 15.3073 20.8116 15.3333C20.6584 15.6384 20.1068 16.0498 18.1749 16.3809C18.0197 16.3763 17.9585 16.5845 17.8924 17.0476C17.8302 17.1796 17.7957 17.3358 17.704 17.5238C17.7069 17.6423 17.6194 17.7089 17.5157 17.7143H17.4215C17.3456 17.7089 17.2006 17.6902 17.0448 17.619C16.6897 17.589 16.3235 17.5294 15.8206 17.5238C15.5853 17.5294 15.3037 17.5532 15.0673 17.619C14.4418 17.6985 13.9503 18.05 13.4664 18.3809C12.6737 18.9649 11.8931 19.5238 10.6412 19.5238Z" fill="white"/>
<path fill-rule="evenodd" clip-rule="evenodd" d="M5.10029 3.39474C6.4853 0.24823 9.4213 0.00332642 10.2875 0.00332642C10.2987 0.00332642 10.3637 0.00274658 10.4396 0.0020752C10.5455 0.00112915 10.6725 0 10.703 0C11.5717 0 14.5139 0.244904 15.8997 3.39307C16.3658 4.45233 16.2542 6.25211 16.1641 7.69769L16.1603 7.75903L16.1519 7.89929C16.1453 8.00699 16.139 8.11169 16.1332 8.2142C16.1982 8.25049 16.3119 8.29514 16.486 8.30304C16.7483 8.29138 17.0526 8.20377 17.391 8.04315C17.5351 7.97473 17.6891 7.96054 17.7933 7.96054C17.9452 7.96054 18.1004 7.99057 18.2322 8.04605C18.6208 8.18665 18.8654 8.47034 18.8716 8.78867C18.8789 9.19376 18.522 9.54337 17.8101 9.82831C17.7232 9.86295 17.6179 9.89716 17.5054 9.93347C17.1036 10.0624 16.4963 10.2576 16.3316 10.651C16.2464 10.855 16.2802 11.117 16.4424 11.4516C16.4955 11.5776 17.7801 14.5464 20.6354 15.0233C20.8548 15.06 21.0117 15.2577 20.9993 15.483C20.9956 15.5506 20.9796 15.6178 20.9524 15.6824C20.7383 16.1877 19.835 16.559 18.1893 16.8176C18.1351 16.892 18.0789 17.1523 18.0438 17.3146L18.0428 17.3195C18.0078 17.4822 17.9724 17.6429 17.9225 17.8135C17.8542 18.0508 17.6817 18.1819 17.4128 18.1819C17.2963 18.1819 17.137 18.1618 16.9385 18.1222C16.6223 18.0596 16.2678 18.002 15.8195 18.002C15.5588 18.002 15.2887 18.025 15.017 18.0705C14.4865 18.1601 14.0359 18.4828 13.5129 18.8572L13.5122 18.8577C12.7649 19.3934 11.9176 20 10.6297 20C10.5721 20 10.5177 19.9983 10.4761 19.9962C10.4407 19.9992 10.4053 20 10.3699 20C9.08244 20 8.23512 19.3934 7.48704 18.8573L7.48585 18.8564C6.9643 18.483 6.51331 18.1601 5.98301 18.0705C5.71128 18.025 5.44117 18.002 5.18055 18.002C4.71079 18.002 4.3353 18.0763 4.0611 18.1306C3.8787 18.1668 3.72059 18.1981 3.5868 18.1981C3.25578 18.1981 3.1269 17.9937 3.07749 17.8227C3.02683 17.6483 2.99143 17.4835 2.95725 17.3233L2.95698 17.3219C2.92197 17.1595 2.86488 16.8946 2.80985 16.8197C1.16462 16.561 0.261299 16.1889 0.0467911 15.6816C0.0200272 15.6169 0.00440222 15.5506 0.000679078 15.4834C-0.01165 15.2585 0.14521 15.06 0.364662 15.0233C3.2187 14.5472 4.5041 11.578 4.56709 11.4304C4.71943 11.1175 4.75361 10.855 4.66837 10.651C4.50336 10.2578 3.89668 10.0626 3.49482 9.93326L3.49415 9.93304C3.38258 9.89758 3.27717 9.8638 3.18946 9.82831C2.21699 9.43909 2.08152 8.99185 2.13917 8.68521C2.21864 8.25967 2.73124 7.97388 3.15983 7.97388C3.28333 7.97388 3.39533 7.99725 3.4925 8.04315C3.85853 8.2171 4.18336 8.30472 4.45841 8.30472C4.66425 8.30472 4.7952 8.25467 4.86683 8.2146C4.85764 8.04865 4.8469 7.8772 4.83649 7.71167L4.83555 7.69644C4.7458 6.25171 4.63419 4.45358 5.10029 3.39474ZM15.7829 7.68878C15.8699 6.28958 15.9781 4.54828 15.5549 3.58734C14.2697 0.666931 11.5422 0.451385 10.7029 0.451813C10.7029 0.451813 10.3546 0.455139 10.3348 0.455139C9.53349 0.455139 6.81956 0.679474 5.53928 3.58902C5.11616 4.55017 5.22422 6.28958 5.3112 7.68906L5.31132 7.69119L5.31776 7.79602C5.32917 7.9808 5.34025 8.16028 5.34925 8.33325L5.35419 8.42099L5.29609 8.48657C5.27094 8.51541 5.03269 8.7673 4.49848 8.7673C4.15882 8.7673 3.77094 8.66495 3.34638 8.46359C3.30845 8.44522 3.25694 8.43604 3.1984 8.43604C2.93705 8.43604 2.6374 8.61398 2.60484 8.78903C2.57597 8.94107 2.76682 9.19131 3.3884 9.44028C3.46015 9.46909 3.55494 9.4996 3.66459 9.53467L3.66596 9.53513C4.14494 9.6893 4.8668 9.92163 5.10975 10.5022C5.24702 10.8301 5.20951 11.2161 4.99848 11.6505C4.91151 11.8565 3.54548 14.9753 0.483223 15.5397C0.535591 15.6637 0.866585 16.094 2.92799 16.4165C3.24992 16.467 3.32948 16.8355 3.42139 17.2616C3.45396 17.4136 3.48817 17.5716 3.53434 17.7307C3.55 17.7854 3.55164 17.7896 3.62583 17.7896C3.71735 17.7896 3.85627 17.7625 4.01704 17.7303C4.30967 17.6722 4.70994 17.5933 5.22147 17.5933C5.50672 17.5933 5.80103 17.6187 6.09617 17.6681C6.72642 17.7746 7.2396 18.1422 7.78288 18.5315C8.51206 19.0541 9.2664 19.5942 10.4168 19.5942C10.4461 19.5942 10.4746 19.593 10.5285 19.5901C10.578 19.5926 10.6271 19.5942 10.6769 19.5942C11.8274 19.5942 12.5817 19.0541 13.3109 18.5311L13.3119 18.5304C13.8548 18.1417 14.3678 17.7745 14.998 17.6681C15.2932 17.6187 15.5875 17.5933 15.8727 17.5933C16.3843 17.5933 16.7845 17.6643 17.0768 17.7224C17.2375 17.7541 17.3768 17.7733 17.4923 17.7733C17.5434 17.7733 17.5458 17.7704 17.5599 17.7224C17.606 17.5632 17.6402 17.4095 17.6728 17.2574L17.6731 17.2562C17.7649 16.8306 17.8438 16.4649 18.1662 16.4144C20.2272 16.0923 20.5586 15.6629 20.6233 15.4883C17.5483 14.9749 16.1827 11.8556 16.0957 11.6505C15.8843 11.2161 15.8472 10.8297 15.984 10.5017C16.2273 9.92188 16.9486 9.68948 17.4272 9.53531L17.4292 9.53467C17.5388 9.4996 17.6336 9.46909 17.7058 9.44028C18.4411 9.14578 18.4939 8.89011 18.4927 8.81866C18.4902 8.69293 18.3435 8.55383 18.1238 8.47531C18.0417 8.44022 17.9424 8.42267 17.8488 8.42267C17.7668 8.42267 17.6889 8.43604 17.6312 8.46359C17.2351 8.65158 16.8706 8.75308 16.531 8.76562C16.0417 8.7464 15.8216 8.51331 15.7985 8.487L15.74 8.42099L15.7449 8.33286C15.7557 8.12732 15.7688 7.9122 15.7829 7.68994L15.7829 7.68878Z" fill="#030303"/>
</svg>
