<svg width="124" height="25" viewBox="0 0 124 25" fill="none" xmlns="http://www.w3.org/2000/svg">
<path fill-rule="evenodd" clip-rule="evenodd" d="M6.32066 15.0446C4.10785 14.7003 2.02421 13.7647 2.02421 11.9321C2.02421 10.0997 3.89548 9.0642 5.48384 9.0642C7.00116 9.0642 8.12087 10.4513 8.12087 11.9719C8.12087 12.7439 8.7479 13.3699 9.52168 13.3699C10.2949 13.3699 10.9222 12.7439 10.9222 11.9719C10.9225 9.8181 8.75927 8.21045 5.52156 8.21045C3.2886 8.21045 0.0524457 9.48887 0.0524457 13.1026C0.0524457 16.7168 3.32968 17.2902 5.85846 17.7973C8.02968 18.2329 9.62734 19.2198 9.62734 20.9356C9.62734 22.8699 7.61398 23.9946 5.90445 23.9946C4.27164 23.9946 2.80393 22.4059 2.80393 21.0209C2.80393 20.344 2.18207 19.6954 1.40959 19.6954C0.616952 19.6954 0 20.3468 0 21.1515C0 23.1133 2.38023 24.896 5.86414 24.896C8.26685 24.896 11.7497 23.5148 11.7497 19.6998C11.7495 16.2632 8.86132 15.4402 6.32066 15.0446H6.32066ZM19.3288 8.23584C22.69 8.23584 25.415 10.4636 25.415 13.9564V19.2016C25.415 22.6943 22.69 24.9221 19.3288 24.9221C15.9676 24.9221 13.2427 22.6946 13.2427 19.2016V13.9564C13.2427 10.4636 15.9676 8.23584 19.3288 8.23584ZM22.6061 20.1267V13.0313C22.6061 10.5222 21.5078 9.0694 19.3288 9.0694C17.1501 9.0694 16.0515 10.5222 16.0515 13.0313V20.1267C16.0515 22.5484 17.2273 24.0886 19.3288 24.0886C21.4303 24.0886 22.6061 22.5487 22.6061 20.1267ZM37.9235 18.9972C37.151 18.9972 36.5251 19.6156 36.523 20.3791H36.5227L36.523 20.3822L36.5227 20.3825H36.523C36.523 20.4015 36.5346 21.3158 36.5271 21.4302C36.4222 22.9581 34.9992 24.1665 33.2561 24.1665C31.1546 24.1665 29.9789 22.6262 29.9789 20.2046V13.1093C29.9789 10.6001 31.0771 9.14743 33.2561 9.14743C34.9995 9.14743 36.4222 10.3556 36.5271 11.8837C36.5346 11.9981 36.523 12.9125 36.523 12.9315H36.5227L36.523 12.9317L36.5227 12.9348H36.523C36.5251 13.6984 37.151 14.3165 37.9235 14.3165C38.6958 14.3165 39.3308 13.6986 39.3238 12.9354H39.3248C39.3248 12.9341 39.3243 12.9328 39.3241 12.9315V12.9312C39.3243 10.2828 36.4602 8.31396 33.2561 8.31396C29.8949 8.31396 27.17 10.5416 27.17 14.0343V19.2796C27.17 22.7726 29.8949 25 33.2561 25C36.4607 25 39.3243 22.9653 39.3243 20.3827V20.3825C39.3248 20.3812 39.3251 20.3796 39.3251 20.3786H39.3241C39.3308 19.6153 38.6958 18.9972 37.9235 18.9972V18.9972ZM44.69 8.38949C44.0373 8.84363 43.3315 9.13413 42.5815 9.28895C42.444 9.32662 42.3686 9.47143 42.3689 9.61271L42.4002 24.241C42.4005 24.4512 42.5698 24.6216 42.7785 24.6216H44.797C45.0061 24.6216 45.1754 24.4509 45.1754 24.2407V8.71325C45.1754 8.4616 44.8874 8.26764 44.69 8.38949V8.38949ZM46.4602 1.84837C46.2725 1.66706 44.1128 1.51166 43.023 4.28215C42.666 5.18956 42.0031 6.17114 41.3262 6.41661C41.1703 6.47312 41.0721 6.62764 41.1031 6.79129L41.1057 6.80571C43.9499 6.55759 46.3517 4.56589 46.5397 2.44085C46.5482 2.34401 46.5941 2.00907 46.4602 1.84837ZM54.4194 8.23584C57.7806 8.23584 60.5055 10.4636 60.5055 13.9564V19.2016C60.5055 22.6943 57.7806 24.9221 54.4194 24.9221C51.0582 24.9221 48.3333 22.6946 48.3333 19.2016V13.9564C48.3333 10.4636 51.0582 8.23584 54.4194 8.23584ZM57.6967 20.1267V13.0313C57.6967 10.5222 56.5984 9.0694 54.4194 9.0694C52.2407 9.0694 51.1421 10.5222 51.1421 13.0313V20.1267C51.1421 22.5484 52.3179 24.0886 54.4194 24.0886C56.5209 24.0886 57.6967 22.5487 57.6967 20.1267ZM71.697 24.5772L71.5113 24.0123C71.4823 23.9244 71.3885 23.8784 71.3009 23.9067C70.9757 24.0108 70.6445 24.0776 70.3425 24.0831C68.4931 24.1151 66.9991 22.7513 66.9991 21.1234L67.0055 10.7686H69.5726C69.6643 10.7686 69.7384 10.6937 69.7384 10.6014V10.1068C69.7384 10.0145 69.6643 9.93984 69.5726 9.93984H67.0027L66.9962 2.63834C66.9962 2.38635 66.7079 2.19287 66.5108 2.31457C65.8579 2.76863 65.1521 3.05937 64.4021 3.2141C64.2646 3.2518 64.1892 3.39665 64.1895 3.53786L64.2094 9.93984H61.841C61.7493 9.93984 61.6752 10.0145 61.6752 10.1068V10.6014C61.6752 10.6937 61.7493 10.7686 61.8413 10.7686H64.1962L64.1897 19.962C64.1897 22.6933 66.9149 24.9077 70.2761 24.9077C70.7204 24.9077 71.1532 24.8684 71.5702 24.7946C71.6691 24.7769 71.7285 24.6734 71.697 24.5772V24.5772ZM81.5724 8.93666C81.6905 8.98729 81.7235 9.13268 81.6387 9.22746C81.463 9.42465 81.3007 9.62892 81.1525 9.83995C81.0957 9.92089 80.9855 9.9462 80.901 9.89293C80.3258 9.53091 79.4934 9.18919 78.8097 9.17742C76.9606 9.14534 75.4664 10.5234 75.4664 12.1516V24.292C75.4664 24.4739 75.2985 24.6216 75.0918 24.6216H73.0318C72.8248 24.6216 72.6572 24.4742 72.6572 24.292V13.313C72.6572 10.5814 75.3821 8.35919 78.7433 8.35919C79.7653 8.35919 80.7273 8.57405 81.5724 8.93666ZM87.9293 9.06398C86.412 9.06398 85.2918 10.4638 85.2918 11.984C85.2918 12.756 84.6646 13.3821 83.8912 13.3821C83.1178 13.3821 82.4906 12.7734 82.4906 12.0014C82.4906 9.84748 84.6541 8.21014 87.8916 8.21014C91.2528 8.21014 93.6458 10.4491 93.6461 13.2105L93.6441 21.6117C93.6441 22.7434 94.4684 23.6858 95.5313 23.8727C95.6272 23.8895 95.6962 23.9755 95.6962 24.0738V24.432C95.6962 24.5388 95.6087 24.6271 95.5026 24.623C94.2795 24.575 93.1713 24.0732 92.3417 23.2844C91.2273 24.3837 89.5004 24.8961 87.5597 24.8961C84.1985 24.8961 81.4736 23.4527 81.4736 20.6911H81.4733C81.4733 18.6826 82.9318 17.6727 83.807 17.2042C84.7751 16.6859 86.2614 16.2305 87.3644 15.7596C89.1498 14.9973 90.837 14.2768 90.837 12.8114V11.9605C90.837 10.3481 89.7408 9.06398 87.9293 9.06398ZM90.837 20.9786V15.0406C89.9238 15.5654 88.8641 16.0437 87.7694 16.5113C85.9763 17.2772 84.2824 18.8801 84.2824 20.6914C84.2824 22.8073 85.4175 24.0629 87.5597 24.0629C89.4817 24.0629 90.837 22.7937 90.837 20.9786ZM107.64 18.9972C106.867 18.9972 106.241 19.6156 106.239 20.3791H106.239L106.239 20.3822L106.239 20.3825H106.239C106.239 20.4015 106.251 21.3158 106.243 21.4302C106.138 22.9581 104.715 24.1665 102.972 24.1665C100.871 24.1665 99.695 22.6262 99.695 20.2046V13.1093C99.695 10.6001 100.793 9.14743 102.972 9.14743C104.716 9.14743 106.138 10.3556 106.243 11.8837C106.251 11.9981 106.239 12.9125 106.239 12.9315H106.239L106.239 12.9317L106.239 12.9348H106.239C106.241 13.6984 106.867 14.3165 107.64 14.3165C108.412 14.3165 109.047 13.6986 109.04 12.9354H109.041C109.041 12.9341 109.04 12.9328 109.04 12.9315V12.9312C109.04 10.2828 106.176 8.31396 102.972 8.31396C99.611 8.31396 96.8861 10.5416 96.8861 14.0343V19.2796C96.8861 22.7726 99.611 25 102.972 25C106.177 25 109.04 22.9653 109.04 20.3827V20.3825C109.041 20.3812 109.041 20.3796 109.041 20.3786H109.04C109.047 19.6153 108.412 18.9972 107.64 18.9972V18.9972ZM118.226 13.0275C118.634 12.8024 119.093 12.7868 119.665 12.7791C122.625 12.74 123.249 10.6529 123.148 10.4118C123.046 10.2288 122.719 10.1525 122.626 10.126C120.795 9.60596 118.589 10.8942 117.066 12.9227C116.781 13.2753 116.514 13.7077 116.273 14.0939C115.897 14.6993 115.542 15.2709 114.998 15.5608C114.774 15.68 114.505 15.7353 114.15 15.7353H113.891V0.361166C113.891 0.109223 113.603 -0.0844442 113.406 0.0374067C112.753 0.491553 112.047 0.782053 111.297 0.936869C111.16 0.974543 111.084 1.11935 111.085 1.26063L111.116 24.2411C111.116 24.4512 111.286 24.6216 111.494 24.6216H113.513C113.722 24.6216 113.891 24.4512 113.891 24.2408V16.5683H114.35C116.322 16.5683 117.77 17.6782 118.193 19.3959C118.626 21.155 118.742 21.9462 119.415 23.1432C119.73 23.7381 120.695 24.619 121.208 24.619H123.71C123.87 24.619 124 24.4883 124 24.327V24.0106C124 23.8852 123.919 23.7772 123.802 23.7342C122.179 23.1409 121.637 21.7655 121.049 19.0188C120.565 16.7502 118.752 15.7665 116.114 15.7309C116.452 15.3745 116.716 14.9509 116.975 14.5356C117.345 13.9396 117.695 13.3245 118.226 13.0275V13.0275Z" fill="white"/>
</svg>
